# xmcd
# 
# Track frame offsets:
#   150
#   17432
#   36139
#   55485
#   73553
#   90163
#   106398
#   119651
#   137653
#   156153
#   177134
#   191452
#   203730
#   220082
#   240163
# 
# Disc length: 3444 seconds
# 
# Revision: 4
# Processed by: cddbd v1.5.2PL0 Copyright (c) Steve Scherf et al.
# Submitted via: Synapstar 1.0 
# 
DISCID=c10d720f
DTITLE=Various Artist - CB 60427
DYEAR=2010
DGENRE=Country
TTITLE0=Brad Paisley - American Saturday Night
TTITLE1=Taylor Swift - Jump Then Fall
TTITLE2=Trent Tomilinson - Angels Like Her
TTITLE3=Matt Kennon - The Call
TTITLE4=Rodney Atkins - Chasin' Girls
TTITLE5=Patty Loveless - Busted
TTITLE6=Eric Church - Hell On The Heart
TTITLE7=Montgomery Gentry - Oughta Be More Songs About That
TTITLE8=Keith Urban - Till Summer Comes Around
TTITLE9=Carrie Underwood - Temporary Home
TTITLE10=Randy Houser - Whistlin' Dixie
TTITLE11=Mark Chesnutt - Going On Later On
TTITLE12=Clay Walker - She Won't Be Lonely Long
TTITLE13=Lee Ann Womack - There Is A God
TTITLE14=Zac Brown Band - Highway 20 Ride
EXTD=MediaType: Karaoke CD+G Producer: Chartbuster
EXTT0=
EXTT1=
EXTT2=
EXTT3=
EXTT4=
EXTT5=
EXTT6=
EXTT7=
EXTT8=
EXTT9=
EXTT10=
EXTT11=
EXTT12=
EXTT13=
EXTT14=
PLAYORDER=
